# Brainrot Rush placeholder: boss_bombardiro
o boss_bombardiro
v -0.35000 0.47500 -0.75000
v 0.35000 0.47500 -0.75000
v 0.35000 0.92500 -0.75000
v -0.35000 0.92500 -0.75000
v -0.35000 0.47500 0.75000
v 0.35000 0.47500 0.75000
v 0.35000 0.92500 0.75000
v -0.35000 0.92500 0.75000
v -0.22500 0.55000 0.70000
v 0.22500 0.55000 0.70000
v 0.22500 0.85000 0.70000
v -0.22500 0.85000 0.70000
v -0.22500 0.55000 1.20000
v 0.22500 0.55000 1.20000
v 0.22500 0.85000 1.20000
v -0.22500 0.85000 1.20000
v -1.50000 0.70000 -0.22500
v -0.40000 0.70000 -0.22500
v -0.40000 0.80000 -0.22500
v -1.50000 0.80000 -0.22500
v -1.50000 0.70000 0.22500
v -0.40000 0.70000 0.22500
v -0.40000 0.80000 0.22500
v -1.50000 0.80000 0.22500
v 0.40000 0.70000 -0.22500
v 1.50000 0.70000 -0.22500
v 1.50000 0.80000 -0.22500
v 0.40000 0.80000 -0.22500
v 0.40000 0.70000 0.22500
v 1.50000 0.70000 0.22500
v 1.50000 0.80000 0.22500
v 0.40000 0.80000 0.22500
v -0.06000 0.87500 -0.72500
v 0.06000 0.87500 -0.72500
v 0.06000 1.32500 -0.72500
v -0.06000 1.32500 -0.72500
v -0.06000 0.87500 -0.37500
v 0.06000 0.87500 -0.37500
v 0.06000 1.32500 -0.37500
v -0.06000 1.32500 -0.37500
v -0.34000 0.05000 0.22500
v -0.16000 0.05000 0.22500
v -0.16000 0.45000 0.22500
v -0.34000 0.45000 0.22500
v -0.34000 0.05000 0.47500
v -0.16000 0.05000 0.47500
v -0.16000 0.45000 0.47500
v -0.34000 0.45000 0.47500
v 0.16000 0.05000 0.22500
v 0.34000 0.05000 0.22500
v 0.34000 0.45000 0.22500
v 0.16000 0.45000 0.22500
v 0.16000 0.05000 0.47500
v 0.34000 0.05000 0.47500
v 0.34000 0.45000 0.47500
v 0.16000 0.45000 0.47500
f 1 2 3 4
f 5 8 7 6
f 1 5 6 2
f 4 3 7 8
f 1 4 8 5
f 2 6 7 3
f 9 10 11 12
f 13 16 15 14
f 9 13 14 10
f 12 11 15 16
f 9 12 16 13
f 10 14 15 11
f 17 18 19 20
f 21 24 23 22
f 17 21 22 18
f 20 19 23 24
f 17 20 24 21
f 18 22 23 19
f 25 26 27 28
f 29 32 31 30
f 25 29 30 26
f 28 27 31 32
f 25 28 32 29
f 26 30 31 27
f 33 34 35 36
f 37 40 39 38
f 33 37 38 34
f 36 35 39 40
f 33 36 40 37
f 34 38 39 35
f 41 42 43 44
f 45 48 47 46
f 41 45 46 42
f 44 43 47 48
f 41 44 48 45
f 42 46 47 43
f 49 50 51 52
f 53 56 55 54
f 49 53 54 50
f 52 51 55 56
f 49 52 56 53
f 50 54 55 51
