# Brainrot Rush placeholder: enemy_boneca
o enemy_boneca
v -0.35000 0.42500 -0.35000
v 0.35000 0.42500 -0.35000
v 0.35000 0.97500 -0.35000
v -0.35000 0.97500 -0.35000
v -0.35000 0.42500 0.35000
v 0.35000 0.42500 0.35000
v 0.35000 0.97500 0.35000
v -0.35000 0.97500 0.35000
v -0.27500 0.97500 -0.07500
v 0.27500 0.97500 -0.07500
v 0.27500 1.32500 -0.07500
v -0.27500 1.32500 -0.07500
v -0.27500 0.97500 0.37500
v 0.27500 0.97500 0.37500
v 0.27500 1.32500 0.37500
v -0.27500 1.32500 0.37500
v 0.00000 0.47500 0.00000
v 0.00000 0.22500 0.00000
v 0.55000 0.47500 0.00000
v 0.55000 0.22500 0.00000
v 0.47631 0.47500 0.27500
v 0.47631 0.22500 0.27500
v 0.27500 0.47500 0.47631
v 0.27500 0.22500 0.47631
v 0.00000 0.47500 0.55000
v 0.00000 0.22500 0.55000
v -0.27500 0.47500 0.47631
v -0.27500 0.22500 0.47631
v -0.47631 0.47500 0.27500
v -0.47631 0.22500 0.27500
v -0.55000 0.47500 0.00000
v -0.55000 0.22500 0.00000
v -0.47631 0.47500 -0.27500
v -0.47631 0.22500 -0.27500
v -0.27500 0.47500 -0.47631
v -0.27500 0.22500 -0.47631
v -0.00000 0.47500 -0.55000
v -0.00000 0.22500 -0.55000
v 0.27500 0.47500 -0.47631
v 0.27500 0.22500 -0.47631
v 0.47631 0.47500 -0.27500
v 0.47631 0.22500 -0.27500
v -0.57500 0.77500 0.07500
v -0.32500 0.77500 0.07500
v -0.32500 0.92500 0.07500
v -0.57500 0.92500 0.07500
v -0.57500 0.77500 0.42500
v -0.32500 0.77500 0.42500
v -0.32500 0.92500 0.42500
v -0.57500 0.92500 0.42500
v 0.32500 0.77500 0.07500
v 0.57500 0.77500 0.07500
v 0.57500 0.92500 0.07500
v 0.32500 0.92500 0.07500
v 0.32500 0.77500 0.42500
v 0.57500 0.77500 0.42500
v 0.57500 0.92500 0.42500
v 0.32500 0.92500 0.42500
f 1 2 3 4
f 5 8 7 6
f 1 5 6 2
f 4 3 7 8
f 1 4 8 5
f 2 6 7 3
f 9 10 11 12
f 13 16 15 14
f 9 13 14 10
f 12 11 15 16
f 9 12 16 13
f 10 14 15 11
f 17 19 21
f 18 22 20
f 19 20 22 21
f 17 21 23
f 18 24 22
f 21 22 24 23
f 17 23 25
f 18 26 24
f 23 24 26 25
f 17 25 27
f 18 28 26
f 25 26 28 27
f 17 27 29
f 18 30 28
f 27 28 30 29
f 17 29 31
f 18 32 30
f 29 30 32 31
f 17 31 33
f 18 34 32
f 31 32 34 33
f 17 33 35
f 18 36 34
f 33 34 36 35
f 17 35 37
f 18 38 36
f 35 36 38 37
f 17 37 39
f 18 40 38
f 37 38 40 39
f 17 39 41
f 18 42 40
f 39 40 42 41
f 17 41 19
f 18 20 42
f 41 42 20 19
f 43 44 45 46
f 47 50 49 48
f 43 47 48 44
f 46 45 49 50
f 43 46 50 47
f 44 48 49 45
f 51 52 53 54
f 55 58 57 56
f 51 55 56 52
f 54 53 57 58
f 51 54 58 55
f 52 56 57 53
