# Brainrot Rush placeholder: tower_freeze
o tower_freeze
v -0.30000 0.00000 -0.30000
v 0.30000 0.00000 -0.30000
v 0.30000 0.90000 -0.30000
v -0.30000 0.90000 -0.30000
v -0.30000 0.00000 0.30000
v 0.30000 0.00000 0.30000
v 0.30000 0.90000 0.30000
v -0.30000 0.90000 0.30000
v -0.35000 0.97500 -0.35000
v 0.35000 0.97500 -0.35000
v 0.35000 1.12500 -0.35000
v -0.35000 1.12500 -0.35000
v -0.35000 0.97500 0.35000
v 0.35000 0.97500 0.35000
v 0.35000 1.12500 0.35000
v -0.35000 1.12500 0.35000
v -0.10000 0.60000 0.22500
v 0.10000 0.60000 0.22500
v 0.10000 0.80000 0.22500
v -0.10000 0.80000 0.22500
v -0.10000 0.60000 0.57500
v 0.10000 0.60000 0.57500
v 0.10000 0.80000 0.57500
v -0.10000 0.80000 0.57500
f 1 2 3 4
f 5 8 7 6
f 1 5 6 2
f 4 3 7 8
f 1 4 8 5
f 2 6 7 3
f 9 10 11 12
f 13 16 15 14
f 9 13 14 10
f 12 11 15 16
f 9 12 16 13
f 10 14 15 11
f 17 18 19 20
f 21 24 23 22
f 17 21 22 18
f 20 19 23 24
f 17 20 24 21
f 18 22 23 19
