# Brainrot Rush placeholder: tower_cannon
o tower_cannon
v -0.35000 0.00000 -0.35000
v 0.35000 0.00000 -0.35000
v 0.35000 0.70000 -0.35000
v -0.35000 0.70000 -0.35000
v -0.35000 0.00000 0.35000
v 0.35000 0.00000 0.35000
v 0.35000 0.70000 0.35000
v -0.35000 0.70000 0.35000
v -0.17500 0.52500 0.20000
v 0.17500 0.52500 0.20000
v 0.17500 0.87500 0.20000
v -0.17500 0.87500 0.20000
v -0.17500 0.52500 1.20000
v 0.17500 0.52500 1.20000
v 0.17500 0.87500 1.20000
v -0.17500 0.87500 1.20000
f 1 2 3 4
f 5 8 7 6
f 1 5 6 2
f 4 3 7 8
f 1 4 8 5
f 2 6 7 3
f 9 10 11 12
f 13 16 15 14
f 9 13 14 10
f 12 11 15 16
f 9 12 16 13
f 10 14 15 11
