# Brainrot Rush placeholder: hat_cap
o hat_cap
v 0.00000 0.22000 0.00000
v 0.00000 0.02000 0.00000
v 0.45000 0.22000 0.00000
v 0.45000 0.02000 0.00000
v 0.38971 0.22000 0.22500
v 0.38971 0.02000 0.22500
v 0.22500 0.22000 0.38971
v 0.22500 0.02000 0.38971
v 0.00000 0.22000 0.45000
v 0.00000 0.02000 0.45000
v -0.22500 0.22000 0.38971
v -0.22500 0.02000 0.38971
v -0.38971 0.22000 0.22500
v -0.38971 0.02000 0.22500
v -0.45000 0.22000 0.00000
v -0.45000 0.02000 0.00000
v -0.38971 0.22000 -0.22500
v -0.38971 0.02000 -0.22500
v -0.22500 0.22000 -0.38971
v -0.22500 0.02000 -0.38971
v -0.00000 0.22000 -0.45000
v -0.00000 0.02000 -0.45000
v 0.22500 0.22000 -0.38971
v 0.22500 0.02000 -0.38971
v 0.38971 0.22000 -0.22500
v 0.38971 0.02000 -0.22500
v -0.27500 0.05000 0.17500
v 0.27500 0.05000 0.17500
v 0.27500 0.11000 0.17500
v -0.27500 0.11000 0.17500
v -0.27500 0.05000 0.52500
v 0.27500 0.05000 0.52500
v 0.27500 0.11000 0.52500
v -0.27500 0.11000 0.52500
f 1 3 5
f 2 6 4
f 3 4 6 5
f 1 5 7
f 2 8 6
f 5 6 8 7
f 1 7 9
f 2 10 8
f 7 8 10 9
f 1 9 11
f 2 12 10
f 9 10 12 11
f 1 11 13
f 2 14 12
f 11 12 14 13
f 1 13 15
f 2 16 14
f 13 14 16 15
f 1 15 17
f 2 18 16
f 15 16 18 17
f 1 17 19
f 2 20 18
f 17 18 20 19
f 1 19 21
f 2 22 20
f 19 20 22 21
f 1 21 23
f 2 24 22
f 21 22 24 23
f 1 23 25
f 2 26 24
f 23 24 26 25
f 1 25 3
f 2 4 26
f 25 26 4 3
f 27 28 29 30
f 31 34 33 32
f 27 31 32 28
f 30 29 33 34
f 27 30 34 31
f 28 32 33 29
