# Brainrot Rush placeholder: char_ballerina
o char_ballerina
v 0.00000 2.12500 0.00000
v 0.00000 1.57500 0.00000
v 0.42000 2.12500 0.00000
v 0.42000 1.57500 0.00000
v 0.36373 2.12500 0.21000
v 0.36373 1.57500 0.21000
v 0.21000 2.12500 0.36373
v 0.21000 1.57500 0.36373
v 0.00000 2.12500 0.42000
v 0.00000 1.57500 0.42000
v -0.21000 2.12500 0.36373
v -0.21000 1.57500 0.36373
v -0.36373 2.12500 0.21000
v -0.36373 1.57500 0.21000
v -0.42000 2.12500 0.00000
v -0.42000 1.57500 0.00000
v -0.36373 2.12500 -0.21000
v -0.36373 1.57500 -0.21000
v -0.21000 2.12500 -0.36373
v -0.21000 1.57500 -0.36373
v -0.00000 2.12500 -0.42000
v -0.00000 1.57500 -0.42000
v 0.21000 2.12500 -0.36373
v 0.21000 1.57500 -0.36373
v 0.36373 2.12500 -0.21000
v 0.36373 1.57500 -0.21000
v -0.27500 2.14000 -0.27500
v 0.27500 2.14000 -0.27500
v 0.27500 2.26000 -0.27500
v -0.27500 2.26000 -0.27500
v -0.27500 2.14000 0.27500
v 0.27500 2.14000 0.27500
v 0.27500 2.26000 0.27500
v -0.27500 2.26000 0.27500
v -0.06000 2.27500 -0.06000
v 0.06000 2.27500 -0.06000
v 0.06000 2.52500 -0.06000
v -0.06000 2.52500 -0.06000
v -0.06000 2.27500 0.06000
v 0.06000 2.27500 0.06000
v 0.06000 2.52500 0.06000
v -0.06000 2.52500 0.06000
v -0.14000 0.65000 -0.14000
v 0.14000 0.65000 -0.14000
v 0.14000 1.55000 -0.14000
v -0.14000 1.55000 -0.14000
v -0.14000 0.65000 0.14000
v 0.14000 0.65000 0.14000
v 0.14000 1.55000 0.14000
v -0.14000 1.55000 0.14000
v 0.00000 0.81000 0.00000
v 0.00000 0.69000 0.00000
v 0.70000 0.81000 0.00000
v 0.70000 0.69000 0.00000
v 0.63068 0.81000 0.30372
v 0.63068 0.69000 0.30372
v 0.43644 0.81000 0.54728
v 0.43644 0.69000 0.54728
v 0.15576 0.81000 0.68245
v 0.15576 0.69000 0.68245
v -0.15576 0.81000 0.68245
v -0.15576 0.69000 0.68245
v -0.43644 0.81000 0.54728
v -0.43644 0.69000 0.54728
v -0.63068 0.81000 0.30372
v -0.63068 0.69000 0.30372
v -0.70000 0.81000 0.00000
v -0.70000 0.69000 0.00000
v -0.63068 0.81000 -0.30372
v -0.63068 0.69000 -0.30372
v -0.43644 0.81000 -0.54728
v -0.43644 0.69000 -0.54728
v -0.15576 0.81000 -0.68245
v -0.15576 0.69000 -0.68245
v 0.15576 0.81000 -0.68245
v 0.15576 0.69000 -0.68245
v 0.43644 0.81000 -0.54728
v 0.43644 0.69000 -0.54728
v 0.63068 0.81000 -0.30372
v 0.63068 0.69000 -0.30372
v -0.25000 0.00000 -0.07000
v -0.11000 0.00000 -0.07000
v -0.11000 0.50000 -0.07000
v -0.25000 0.50000 -0.07000
v -0.25000 0.00000 0.07000
v -0.11000 0.00000 0.07000
v -0.11000 0.50000 0.07000
v -0.25000 0.50000 0.07000
v 0.11000 0.00000 -0.07000
v 0.25000 0.00000 -0.07000
v 0.25000 0.50000 -0.07000
v 0.11000 0.50000 -0.07000
v 0.11000 0.00000 0.07000
v 0.25000 0.00000 0.07000
v 0.25000 0.50000 0.07000
v 0.11000 0.50000 0.07000
v -0.82500 1.20000 -0.05000
v -0.27500 1.20000 -0.05000
v -0.27500 1.30000 -0.05000
v -0.82500 1.30000 -0.05000
v -0.82500 1.20000 0.05000
v -0.27500 1.20000 0.05000
v -0.27500 1.30000 0.05000
v -0.82500 1.30000 0.05000
v 0.27500 1.20000 -0.05000
v 0.82500 1.20000 -0.05000
v 0.82500 1.30000 -0.05000
v 0.27500 1.30000 -0.05000
v 0.27500 1.20000 0.05000
v 0.82500 1.20000 0.05000
v 0.82500 1.30000 0.05000
v 0.27500 1.30000 0.05000
f 1 3 5
f 2 6 4
f 3 4 6 5
f 1 5 7
f 2 8 6
f 5 6 8 7
f 1 7 9
f 2 10 8
f 7 8 10 9
f 1 9 11
f 2 12 10
f 9 10 12 11
f 1 11 13
f 2 14 12
f 11 12 14 13
f 1 13 15
f 2 16 14
f 13 14 16 15
f 1 15 17
f 2 18 16
f 15 16 18 17
f 1 17 19
f 2 20 18
f 17 18 20 19
f 1 19 21
f 2 22 20
f 19 20 22 21
f 1 21 23
f 2 24 22
f 21 22 24 23
f 1 23 25
f 2 26 24
f 23 24 26 25
f 1 25 3
f 2 4 26
f 25 26 4 3
f 27 28 29 30
f 31 34 33 32
f 27 31 32 28
f 30 29 33 34
f 27 30 34 31
f 28 32 33 29
f 35 36 37 38
f 39 42 41 40
f 35 39 40 36
f 38 37 41 42
f 35 38 42 39
f 36 40 41 37
f 43 44 45 46
f 47 50 49 48
f 43 47 48 44
f 46 45 49 50
f 43 46 50 47
f 44 48 49 45
f 51 53 55
f 52 56 54
f 53 54 56 55
f 51 55 57
f 52 58 56
f 55 56 58 57
f 51 57 59
f 52 60 58
f 57 58 60 59
f 51 59 61
f 52 62 60
f 59 60 62 61
f 51 61 63
f 52 64 62
f 61 62 64 63
f 51 63 65
f 52 66 64
f 63 64 66 65
f 51 65 67
f 52 68 66
f 65 66 68 67
f 51 67 69
f 52 70 68
f 67 68 70 69
f 51 69 71
f 52 72 70
f 69 70 72 71
f 51 71 73
f 52 74 72
f 71 72 74 73
f 51 73 75
f 52 76 74
f 73 74 76 75
f 51 75 77
f 52 78 76
f 75 76 78 77
f 51 77 79
f 52 80 78
f 77 78 80 79
f 51 79 53
f 52 54 80
f 79 80 54 53
f 81 82 83 84
f 85 88 87 86
f 81 85 86 82
f 84 83 87 88
f 81 84 88 85
f 82 86 87 83
f 89 90 91 92
f 93 96 95 94
f 89 93 94 90
f 92 91 95 96
f 89 92 96 93
f 90 94 95 91
f 97 98 99 100
f 101 104 103 102
f 97 101 102 98
f 100 99 103 104
f 97 100 104 101
f 98 102 103 99
f 105 106 107 108
f 109 112 111 110
f 105 109 110 106
f 108 107 111 112
f 105 108 112 109
f 106 110 111 107
