# Brainrot Rush placeholder: tower_rapid
o tower_rapid
v 0.00000 0.70000 0.00000
v 0.00000 0.00000 0.00000
v 0.45000 0.70000 0.00000
v 0.45000 0.00000 0.00000
v 0.36406 0.70000 0.26450
v 0.36406 0.00000 0.26450
v 0.13906 0.70000 0.42798
v 0.13906 0.00000 0.42798
v -0.13906 0.70000 0.42798
v -0.13906 0.00000 0.42798
v -0.36406 0.70000 0.26450
v -0.36406 0.00000 0.26450
v -0.45000 0.70000 0.00000
v -0.45000 0.00000 0.00000
v -0.36406 0.70000 -0.26450
v -0.36406 0.00000 -0.26450
v -0.13906 0.70000 -0.42798
v -0.13906 0.00000 -0.42798
v 0.13906 0.70000 -0.42798
v 0.13906 0.00000 -0.42798
v 0.36406 0.70000 -0.26450
v 0.36406 0.00000 -0.26450
v -0.12500 0.72500 0.07500
v 0.12500 0.72500 0.07500
v 0.12500 0.97500 0.07500
v -0.12500 0.97500 0.07500
v -0.12500 0.72500 0.62500
v 0.12500 0.72500 0.62500
v 0.12500 0.97500 0.62500
v -0.12500 0.97500 0.62500
v -0.17500 0.95000 -0.17500
v 0.17500 0.95000 -0.17500
v 0.17500 1.15000 -0.17500
v -0.17500 1.15000 -0.17500
v -0.17500 0.95000 0.17500
v 0.17500 0.95000 0.17500
v 0.17500 1.15000 0.17500
v -0.17500 1.15000 0.17500
f 1 3 5
f 2 6 4
f 3 4 6 5
f 1 5 7
f 2 8 6
f 5 6 8 7
f 1 7 9
f 2 10 8
f 7 8 10 9
f 1 9 11
f 2 12 10
f 9 10 12 11
f 1 11 13
f 2 14 12
f 11 12 14 13
f 1 13 15
f 2 16 14
f 13 14 16 15
f 1 15 17
f 2 18 16
f 15 16 18 17
f 1 17 19
f 2 20 18
f 17 18 20 19
f 1 19 21
f 2 22 20
f 19 20 22 21
f 1 21 3
f 2 4 22
f 21 22 4 3
f 23 24 25 26
f 27 30 29 28
f 23 27 28 24
f 26 25 29 30
f 23 26 30 27
f 24 28 29 25
f 31 32 33 34
f 35 38 37 36
f 31 35 36 32
f 34 33 37 38
f 31 34 38 35
f 32 36 37 33
