# Brainrot Rush placeholder: char_assassino
o char_assassino
v 0.00000 1.90000 0.00000
v 0.00000 1.20000 0.00000
v 0.38000 1.90000 0.00000
v 0.38000 1.20000 0.00000
v 0.32909 1.90000 0.19000
v 0.32909 1.20000 0.19000
v 0.19000 1.90000 0.32909
v 0.19000 1.20000 0.32909
v 0.00000 1.90000 0.38000
v 0.00000 1.20000 0.38000
v -0.19000 1.90000 0.32909
v -0.19000 1.20000 0.32909
v -0.32909 1.90000 0.19000
v -0.32909 1.20000 0.19000
v -0.38000 1.90000 0.00000
v -0.38000 1.20000 0.00000
v -0.32909 1.90000 -0.19000
v -0.32909 1.20000 -0.19000
v -0.19000 1.90000 -0.32909
v -0.19000 1.20000 -0.32909
v -0.00000 1.90000 -0.38000
v -0.00000 1.20000 -0.38000
v 0.19000 1.90000 -0.32909
v 0.19000 1.20000 -0.32909
v 0.32909 1.90000 -0.19000
v 0.32909 1.20000 -0.19000
v -0.25000 1.94000 -0.25000
v 0.25000 1.94000 -0.25000
v 0.25000 2.06000 -0.25000
v -0.25000 2.06000 -0.25000
v -0.25000 1.94000 0.25000
v 0.25000 1.94000 0.25000
v 0.25000 2.06000 0.25000
v -0.25000 2.06000 0.25000
v -0.22500 0.72500 -0.15000
v 0.22500 0.72500 -0.15000
v 0.22500 1.27500 -0.15000
v -0.22500 1.27500 -0.15000
v -0.22500 0.72500 0.15000
v 0.22500 0.72500 0.15000
v 0.22500 1.27500 0.15000
v -0.22500 1.27500 0.15000
v -0.62500 0.89000 -0.01000
v -0.27500 0.89000 -0.01000
v -0.27500 1.01000 -0.01000
v -0.62500 1.01000 -0.01000
v -0.62500 0.89000 0.11000
v -0.27500 0.89000 0.11000
v -0.27500 1.01000 0.11000
v -0.62500 1.01000 0.11000
v 0.27500 0.90000 0.00000
v 0.82500 0.90000 0.00000
v 0.82500 1.00000 0.00000
v 0.27500 1.00000 0.00000
v 0.27500 0.90000 0.10000
v 0.82500 0.90000 0.10000
v 0.82500 1.00000 0.10000
v 0.27500 1.00000 0.10000
v 0.72500 0.91000 -0.04000
v 1.07500 0.91000 -0.04000
v 1.07500 0.99000 -0.04000
v 0.72500 0.99000 -0.04000
v 0.72500 0.91000 0.14000
v 1.07500 0.91000 0.14000
v 1.07500 0.99000 0.14000
v 0.72500 0.99000 0.14000
v -0.22000 0.02500 -0.07000
v -0.08000 0.02500 -0.07000
v -0.08000 0.57500 -0.07000
v -0.22000 0.57500 -0.07000
v -0.22000 0.02500 0.07000
v -0.08000 0.02500 0.07000
v -0.08000 0.57500 0.07000
v -0.22000 0.57500 0.07000
v 0.08000 0.02500 -0.07000
v 0.22000 0.02500 -0.07000
v 0.22000 0.57500 -0.07000
v 0.08000 0.57500 -0.07000
v 0.08000 0.02500 0.07000
v 0.22000 0.02500 0.07000
v 0.22000 0.57500 0.07000
v 0.08000 0.57500 0.07000
f 1 3 5
f 2 6 4
f 3 4 6 5
f 1 5 7
f 2 8 6
f 5 6 8 7
f 1 7 9
f 2 10 8
f 7 8 10 9
f 1 9 11
f 2 12 10
f 9 10 12 11
f 1 11 13
f 2 14 12
f 11 12 14 13
f 1 13 15
f 2 16 14
f 13 14 16 15
f 1 15 17
f 2 18 16
f 15 16 18 17
f 1 17 19
f 2 20 18
f 17 18 20 19
f 1 19 21
f 2 22 20
f 19 20 22 21
f 1 21 23
f 2 24 22
f 21 22 24 23
f 1 23 25
f 2 26 24
f 23 24 26 25
f 1 25 3
f 2 4 26
f 25 26 4 3
f 27 28 29 30
f 31 34 33 32
f 27 31 32 28
f 30 29 33 34
f 27 30 34 31
f 28 32 33 29
f 35 36 37 38
f 39 42 41 40
f 35 39 40 36
f 38 37 41 42
f 35 38 42 39
f 36 40 41 37
f 43 44 45 46
f 47 50 49 48
f 43 47 48 44
f 46 45 49 50
f 43 46 50 47
f 44 48 49 45
f 51 52 53 54
f 55 58 57 56
f 51 55 56 52
f 54 53 57 58
f 51 54 58 55
f 52 56 57 53
f 59 60 61 62
f 63 66 65 64
f 59 63 64 60
f 62 61 65 66
f 59 62 66 63
f 60 64 65 61
f 67 68 69 70
f 71 74 73 72
f 67 71 72 68
f 70 69 73 74
f 67 70 74 71
f 68 72 73 69
f 75 76 77 78
f 79 82 81 80
f 75 79 80 76
f 78 77 81 82
f 75 78 82 79
f 76 80 81 77
