# Brainrot Rush placeholder: char_tralalero
o char_tralalero
v -0.35000 0.57500 -0.60000
v 0.35000 0.57500 -0.60000
v 0.35000 1.12500 -0.60000
v -0.35000 1.12500 -0.60000
v -0.35000 0.57500 0.80000
v 0.35000 0.57500 0.80000
v 0.35000 1.12500 0.80000
v -0.35000 1.12500 0.80000
v -0.22500 0.82500 0.67500
v 0.22500 0.82500 0.67500
v 0.22500 1.17500 0.67500
v -0.22500 1.17500 0.67500
v -0.22500 0.82500 1.22500
v 0.22500 0.82500 1.22500
v 0.22500 1.17500 1.22500
v -0.22500 1.17500 1.22500
v -0.07500 1.07500 -0.47500
v 0.07500 1.07500 -0.47500
v 0.07500 1.62500 -0.47500
v -0.07500 1.62500 -0.47500
v -0.07500 1.07500 0.07500
v 0.07500 1.07500 0.07500
v 0.07500 1.62500 0.07500
v -0.07500 1.62500 0.07500
v -0.45000 0.00000 -0.27500
v -0.25000 0.00000 -0.27500
v -0.25000 0.50000 -0.27500
v -0.45000 0.50000 -0.27500
v -0.45000 0.00000 -0.02500
v -0.25000 0.00000 -0.02500
v -0.25000 0.50000 -0.02500
v -0.45000 0.50000 -0.02500
v -0.10000 0.00000 0.12500
v 0.10000 0.00000 0.12500
v 0.10000 0.50000 0.12500
v -0.10000 0.50000 0.12500
v -0.10000 0.00000 0.37500
v 0.10000 0.00000 0.37500
v 0.10000 0.50000 0.37500
v -0.10000 0.50000 0.37500
v 0.25000 0.00000 -0.27500
v 0.45000 0.00000 -0.27500
v 0.45000 0.50000 -0.27500
v 0.25000 0.50000 -0.27500
v 0.25000 0.00000 -0.02500
v 0.45000 0.00000 -0.02500
v 0.45000 0.50000 -0.02500
v 0.25000 0.50000 -0.02500
v -0.49000 -0.01000 -0.35000
v -0.21000 -0.01000 -0.35000
v -0.21000 0.11000 -0.35000
v -0.49000 0.11000 -0.35000
v -0.49000 -0.01000 0.05000
v -0.21000 -0.01000 0.05000
v -0.21000 0.11000 0.05000
v -0.49000 0.11000 0.05000
v -0.14000 -0.01000 0.05000
v 0.14000 -0.01000 0.05000
v 0.14000 0.11000 0.05000
v -0.14000 0.11000 0.05000
v -0.14000 -0.01000 0.45000
v 0.14000 -0.01000 0.45000
v 0.14000 0.11000 0.45000
v -0.14000 0.11000 0.45000
v 0.21000 -0.01000 -0.35000
v 0.49000 -0.01000 -0.35000
v 0.49000 0.11000 -0.35000
v 0.21000 0.11000 -0.35000
v 0.21000 -0.01000 0.05000
v 0.49000 -0.01000 0.05000
v 0.49000 0.11000 0.05000
v 0.21000 0.11000 0.05000
f 1 2 3 4
f 5 8 7 6
f 1 5 6 2
f 4 3 7 8
f 1 4 8 5
f 2 6 7 3
f 9 10 11 12
f 13 16 15 14
f 9 13 14 10
f 12 11 15 16
f 9 12 16 13
f 10 14 15 11
f 17 18 19 20
f 21 24 23 22
f 17 21 22 18
f 20 19 23 24
f 17 20 24 21
f 18 22 23 19
f 25 26 27 28
f 29 32 31 30
f 25 29 30 26
f 28 27 31 32
f 25 28 32 29
f 26 30 31 27
f 33 34 35 36
f 37 40 39 38
f 33 37 38 34
f 36 35 39 40
f 33 36 40 37
f 34 38 39 35
f 41 42 43 44
f 45 48 47 46
f 41 45 46 42
f 44 43 47 48
f 41 44 48 45
f 42 46 47 43
f 49 50 51 52
f 53 56 55 54
f 49 53 54 50
f 52 51 55 56
f 49 52 56 53
f 50 54 55 51
f 57 58 59 60
f 61 64 63 62
f 57 61 62 58
f 60 59 63 64
f 57 60 64 61
f 58 62 63 59
f 65 66 67 68
f 69 72 71 70
f 65 69 70 66
f 68 67 71 72
f 65 68 72 69
f 66 70 71 67
