# Brainrot Rush placeholder: enemy_patapim
o enemy_patapim
v 0.00000 1.90000 0.00000
v 0.00000 0.10000 0.00000
v 0.28000 1.90000 0.00000
v 0.28000 0.10000 0.00000
v 0.22652 1.90000 0.16458
v 0.22652 0.10000 0.16458
v 0.08652 1.90000 0.26630
v 0.08652 0.10000 0.26630
v -0.08652 1.90000 0.26630
v -0.08652 0.10000 0.26630
v -0.22652 1.90000 0.16458
v -0.22652 0.10000 0.16458
v -0.28000 1.90000 0.00000
v -0.28000 0.10000 0.00000
v -0.22652 1.90000 -0.16458
v -0.22652 0.10000 -0.16458
v -0.08652 1.90000 -0.26630
v -0.08652 0.10000 -0.26630
v 0.08652 1.90000 -0.26630
v 0.08652 0.10000 -0.26630
v 0.22652 1.90000 -0.16458
v 0.22652 0.10000 -0.16458
v -0.90000 1.20000 -0.10000
v -0.20000 1.20000 -0.10000
v -0.20000 1.40000 -0.10000
v -0.90000 1.40000 -0.10000
v -0.90000 1.20000 0.10000
v -0.20000 1.20000 0.10000
v -0.20000 1.40000 0.10000
v -0.90000 1.40000 0.10000
v 0.20000 1.45000 -0.10000
v 0.90000 1.45000 -0.10000
v 0.90000 1.65000 -0.10000
v 0.20000 1.65000 -0.10000
v 0.20000 1.45000 0.10000
v 0.90000 1.45000 0.10000
v 0.90000 1.65000 0.10000
v 0.20000 1.65000 0.10000
v -0.22500 1.87500 -0.22500
v 0.22500 1.87500 -0.22500
v 0.22500 2.22500 -0.22500
v -0.22500 2.22500 -0.22500
v -0.22500 1.87500 0.22500
v 0.22500 1.87500 0.22500
v 0.22500 2.22500 0.22500
v -0.22500 2.22500 0.22500
v -0.30000 0.00000 0.00000
v -0.10000 0.00000 0.00000
v -0.10000 0.30000 0.00000
v -0.30000 0.30000 0.00000
v -0.30000 0.00000 0.20000
v -0.10000 0.00000 0.20000
v -0.10000 0.30000 0.20000
v -0.30000 0.30000 0.20000
v 0.10000 0.00000 -0.20000
v 0.30000 0.00000 -0.20000
v 0.30000 0.30000 -0.20000
v 0.10000 0.30000 -0.20000
v 0.10000 0.00000 0.00000
v 0.30000 0.00000 0.00000
v 0.30000 0.30000 0.00000
v 0.10000 0.30000 0.00000
f 1 3 5
f 2 6 4
f 3 4 6 5
f 1 5 7
f 2 8 6
f 5 6 8 7
f 1 7 9
f 2 10 8
f 7 8 10 9
f 1 9 11
f 2 12 10
f 9 10 12 11
f 1 11 13
f 2 14 12
f 11 12 14 13
f 1 13 15
f 2 16 14
f 13 14 16 15
f 1 15 17
f 2 18 16
f 15 16 18 17
f 1 17 19
f 2 20 18
f 17 18 20 19
f 1 19 21
f 2 22 20
f 19 20 22 21
f 1 21 3
f 2 4 22
f 21 22 4 3
f 23 24 25 26
f 27 30 29 28
f 23 27 28 24
f 26 25 29 30
f 23 26 30 27
f 24 28 29 25
f 31 32 33 34
f 35 38 37 36
f 31 35 36 32
f 34 33 37 38
f 31 34 38 35
f 32 36 37 33
f 39 40 41 42
f 43 46 45 44
f 39 43 44 40
f 42 41 45 46
f 39 42 46 43
f 40 44 45 41
f 47 48 49 50
f 51 54 53 52
f 47 51 52 48
f 50 49 53 54
f 47 50 54 51
f 48 52 53 49
f 55 56 57 58
f 59 62 61 60
f 55 59 60 56
f 58 57 61 62
f 55 58 62 59
f 56 60 61 57
