# Brainrot Rush placeholder: enemy_lirili
o enemy_lirili
v -0.35000 0.50000 -0.45000
v 0.35000 0.50000 -0.45000
v 0.35000 1.20000 -0.45000
v -0.35000 1.20000 -0.45000
v -0.35000 0.50000 0.45000
v 0.35000 0.50000 0.45000
v 0.35000 1.20000 0.45000
v -0.35000 1.20000 0.45000
v -0.17500 1.22500 0.27500
v 0.17500 1.22500 0.27500
v 0.17500 1.47500 0.27500
v -0.17500 1.47500 0.27500
v -0.17500 1.22500 0.82500
v 0.17500 1.22500 0.82500
v 0.17500 1.47500 0.82500
v -0.17500 1.47500 0.82500
v -0.20000 1.82500 -0.10000
v -0.20000 1.27500 -0.10000
v -0.08000 1.82500 -0.10000
v -0.08000 1.27500 -0.10000
v -0.11515 1.82500 -0.01515
v -0.11515 1.27500 -0.01515
v -0.20000 1.82500 0.02000
v -0.20000 1.27500 0.02000
v -0.28485 1.82500 -0.01515
v -0.28485 1.27500 -0.01515
v -0.32000 1.82500 -0.10000
v -0.32000 1.27500 -0.10000
v -0.28485 1.82500 -0.18485
v -0.28485 1.27500 -0.18485
v -0.20000 1.82500 -0.22000
v -0.20000 1.27500 -0.22000
v -0.11515 1.82500 -0.18485
v -0.11515 1.27500 -0.18485
v 0.20000 1.82500 -0.10000
v 0.20000 1.27500 -0.10000
v 0.32000 1.82500 -0.10000
v 0.32000 1.27500 -0.10000
v 0.28485 1.82500 -0.01515
v 0.28485 1.27500 -0.01515
v 0.20000 1.82500 0.02000
v 0.20000 1.27500 0.02000
v 0.11515 1.82500 -0.01515
v 0.11515 1.27500 -0.01515
v 0.08000 1.82500 -0.10000
v 0.08000 1.27500 -0.10000
v 0.11515 1.82500 -0.18485
v 0.11515 1.27500 -0.18485
v 0.20000 1.82500 -0.22000
v 0.20000 1.27500 -0.22000
v 0.28485 1.82500 -0.18485
v 0.28485 1.27500 -0.18485
v -0.35000 0.02500 0.10000
v -0.15000 0.02500 0.10000
v -0.15000 0.47500 0.10000
v -0.35000 0.47500 0.10000
v -0.35000 0.02500 0.30000
v -0.15000 0.02500 0.30000
v -0.15000 0.47500 0.30000
v -0.35000 0.47500 0.30000
v 0.15000 0.02500 0.10000
v 0.35000 0.02500 0.10000
v 0.35000 0.47500 0.10000
v 0.15000 0.47500 0.10000
v 0.15000 0.02500 0.30000
v 0.35000 0.02500 0.30000
v 0.35000 0.47500 0.30000
v 0.15000 0.47500 0.30000
v -0.35000 0.02500 -0.35000
v -0.15000 0.02500 -0.35000
v -0.15000 0.47500 -0.35000
v -0.35000 0.47500 -0.35000
v -0.35000 0.02500 -0.15000
v -0.15000 0.02500 -0.15000
v -0.15000 0.47500 -0.15000
v -0.35000 0.47500 -0.15000
v 0.15000 0.02500 -0.35000
v 0.35000 0.02500 -0.35000
v 0.35000 0.47500 -0.35000
v 0.15000 0.47500 -0.35000
v 0.15000 0.02500 -0.15000
v 0.35000 0.02500 -0.15000
v 0.35000 0.47500 -0.15000
v 0.15000 0.47500 -0.15000
f 1 2 3 4
f 5 8 7 6
f 1 5 6 2
f 4 3 7 8
f 1 4 8 5
f 2 6 7 3
f 9 10 11 12
f 13 16 15 14
f 9 13 14 10
f 12 11 15 16
f 9 12 16 13
f 10 14 15 11
f 17 19 21
f 18 22 20
f 19 20 22 21
f 17 21 23
f 18 24 22
f 21 22 24 23
f 17 23 25
f 18 26 24
f 23 24 26 25
f 17 25 27
f 18 28 26
f 25 26 28 27
f 17 27 29
f 18 30 28
f 27 28 30 29
f 17 29 31
f 18 32 30
f 29 30 32 31
f 17 31 33
f 18 34 32
f 31 32 34 33
f 17 33 19
f 18 20 34
f 33 34 20 19
f 35 37 39
f 36 40 38
f 37 38 40 39
f 35 39 41
f 36 42 40
f 39 40 42 41
f 35 41 43
f 36 44 42
f 41 42 44 43
f 35 43 45
f 36 46 44
f 43 44 46 45
f 35 45 47
f 36 48 46
f 45 46 48 47
f 35 47 49
f 36 50 48
f 47 48 50 49
f 35 49 51
f 36 52 50
f 49 50 52 51
f 35 51 37
f 36 38 52
f 51 52 38 37
f 53 54 55 56
f 57 60 59 58
f 53 57 58 54
f 56 55 59 60
f 53 56 60 57
f 54 58 59 55
f 61 62 63 64
f 65 68 67 66
f 61 65 66 62
f 64 63 67 68
f 61 64 68 65
f 62 66 67 63
f 69 70 71 72
f 73 76 75 74
f 69 73 74 70
f 72 71 75 76
f 69 72 76 73
f 70 74 75 71
f 77 78 79 80
f 81 84 83 82
f 77 81 82 78
f 80 79 83 84
f 77 80 84 81
f 78 82 83 79
